<?xml version="1.0" encoding="UTF-8"?><svg id="Layer_1" xmlns="http://www.w3.org/2000/svg" viewBox="0 0 387.04 387.04"><path d="M154.23,356.93c4.9-.5,9.6-1.3,14.4-1.4,2.8,0,5.5,1.7,8.3,1.7,16.6-.3,33.2-.9,49.9-1.2,5.5-.1,8.2-3.7,6-8.5-1.5-3.2-3.2-6.4-4.6-9.6-5.8-13.1-8.6-26.7-7.6-41,.5-7.5,4.9-11.9,11.6-14.5,10.5-4.2,21.7-7.4,31.2-13.2,10.5-6.3,19.7-14.9,29-23,3.1-2.7,4.2-9.3,7.3-10,5.9-1.5,7.6-6,10.3-9.7,10.1-13.9,14.2-30.2,17.8-46.7,.8-3.8,1.4-7.7,1.5-11.5,.2-15.1,0-30.1,.3-45.2,.1-6.1,.5-12.4,2.1-18.3,3.3-12.1,8.1-18.7,19.9-18.9,2.3,0,4.5-.6,6.8-1,10.9-2.2,17.4-11.3,16.4-22.4-.3-3.3-.1-6.8,.5-10,1.1-6-.6-8.5-6.6-8.5-9.1,0-18.2,.3-27.3,.3-16.1,0-31.2,2.9-44.7,12.6-14.1,10.1-21.3,23.5-21.9,40.3-.7,17.9-.2,35.8-.5,53.7-.1,8.4-.5,16.8-1.6,25.1-1.5,11.2-5.1,21.7-14.2,29.4-12,10.1-28.7,5.7-33.5-9.1-1.9-5.8-3.3-12-3.5-18-.5-20-.3-40.1-.3-60.1,0-10.5,0-20.9,.2-31.4,.2-18,2.5-35.4,14.3-50.1,1.9-2.3,1.6-5-1.1-6.4-2.5-1.3-5.4-2.2-8.2-2.3-22.6-.2-45.1,0-67.7-.3-5.3-.1-8.5,1.5-10.1,6.1,7.2,12.8,13.9,25.5,14.6,40.2,.8,17.9,1.2,35.8,1.8,53.7,0,.7-.3,1.3-.3,2-.5,13.6-.7,27.2-1.4,40.7-.4,7.7-.6,15.5-2.5,22.9-3,11.7-14.5,20.3-26.5,16.3-7.3-2.4-13-7.2-16.6-14.1-5.2-10-7-20.9-7.6-32-.3-6.6,0-13.2,.3-19.8,.3-6.2-3.6-12.3-.3-18.8,1.1-2.2,0-5.6-.2-8.5-.6-10.4,.4-21.2-2-31.2-5.2-22.1-21.2-34-42.3-39.9-17.9-4.9-36.1-1.2-55-2.7,1.1,8.1-2,15,0,22.7,3.6,13.9,6.8,17.5,20.9,19,8.6,.9,15.1,4.2,18.6,12.5,3.1,7.4,5.6,23.7,5.2,31.8-.1,2.2,1.5,4.5,2.3,6.7-.9,1.8-3.2,4.1-3.2,6.4,.3,12.9,.6,25.8,2,38.6,1.6,14.2,7.2,27.3,14,39.7,4.4,8,9.9,15.3,17.8,20.5,2.4,1.6,4,4.4,5.8,6.8,1.3,1.7,1.9,4.1,3.5,5.4,15.7,13.5,33.7,23,53.4,29.3,7.3,2.4,11.7,6.6,12.3,14.3,1.1,15-2,29.3-8.9,42.8-3.3,6.1-4.7,12-.1,17.8Z" style="fill:#ffffff;"/><path d="M154.23,356.93c-4.6-5.8-3.2-11.7-.1-17.8,6.9-13.4,10-27.7,8.9-42.8-.5-7.7-4.9-11.9-12.3-14.3-19.6-6.4-37.6-15.8-53.4-29.3-1.6-1.3-2.2-3.7-3.5-5.4-1.8-2.4-3.4-5.2-5.8-6.8-7.9-5.3-13.4-12.5-17.8-20.5-6.8-12.4-12.4-25.5-14-39.7-1.4-12.8-1.7-25.7-2-38.6-.1-2.3,2.2-4.7,3.2-6.4-.8-2.2-2.4-4.5-2.3-6.7,.4-8-2.1-24.4-5.2-31.8-3.5-8.3-10.1-11.6-18.6-12.5-14.2-1.5-17.4-5.2-20.9-19-2-7.6,1.2-14.5,0-22.7,18.9,1.5,37.1-2.3,55,2.7,21.1,5.8,37.1,17.7,42.3,39.9,2.3,10,1.4,20.8,2,31.2,.2,2.9,1.3,6.3,.2,8.5-3.3,6.5,.6,12.6,.3,18.8-.3,6.6-.6,13.2-.3,19.8,.6,11.1,2.4,22,7.6,32,3.6,6.9,9.3,11.7,16.6,14.1,11.9,4,23.5-4.6,26.5-16.3,1.9-7.4,2.1-15.3,2.5-22.9,.7-13.6,1-27.1,1.4-40.7,0-.7,.4-1.3,.3-2-.6-17.9-1-35.8-1.8-53.7-.7-14.7-7.4-27.4-14.6-40.2,1.6-4.6,4.8-6.1,10.1-6.1,22.6,.3,45.1,.1,67.7,.3,2.7,0,5.7,1,8.2,2.3,2.6,1.4,2.9,4.1,1.1,6.4-11.7,14.7-14,32.1-14.3,50.1-.1,10.5-.2,20.9-.2,31.4,0,20-.2,40.1,.3,60.1,.1,6,1.6,12.2,3.5,18,4.8,14.9,21.5,19.2,33.5,9.1,9.1-7.7,12.7-18.2,14.2-29.4,1.1-8.3,1.5-16.7,1.6-25.1,.3-17.9-.2-35.8,.5-53.7,.6-16.8,7.8-30.2,21.9-40.3,13.6-9.7,28.6-12.6,44.7-12.6,9.1,0,18.2-.3,27.3-.3,6,0,7.7,2.5,6.6,8.5-.6,3.3-.8,6.7-.5,10,1,11.1-5.5,20.3-16.4,22.4-2.2,.4-4.5,1-6.8,1-11.8,.2-16.6,6.7-19.9,18.9-1.6,5.8-2,12.1-2.1,18.3-.3,15.1-.1,30.1-.3,45.2-.1,3.8-.7,7.7-1.5,11.5-3.6,16.5-7.7,32.8-17.8,46.7-2.7,3.7-4.4,8.3-10.3,9.7-3,.7-4.2,7.3-7.3,10-9.3,8.1-18.5,16.6-29,23-9.6,5.8-20.7,9-31.2,13.2-6.7,2.7-11.1,7.1-11.6,14.5-.9,14.3,1.8,27.9,7.6,41,1.4,3.2,3.1,6.4,4.6,9.6,2.2,4.8-.5,8.4-6,8.5-16.6,.4-33.2,1-49.9,1.2-2.8,0-5.5-1.7-8.3-1.7-4.5,.1-9.2,.9-14.2,1.4Z" style="fill:#ffffff;"/></svg>